<?xml version="1.0" encoding="UTF-8"?>
<svg xmlns="http://www.w3.org/2000/svg" viewBox="0 0 20 20">
  <defs>
    <style>
      .cls-1 {
        fill: #9b00ff;
      }

      .cls-2 {
        fill: #d3d3d3;
      }
    </style>
  </defs>
  <g id="Art">
    <circle class="cls-2" cx="10" cy="10" r="10"/>
    <path class="cls-1" d="M9.3,6.04c-2.63,0-4.21,2.11-4.21,3.17s.53,1.85,1.58,1.85,1.58.26,1.58,1.06c0,1.06.79,1.85,1.84,1.85,3.42,0,5-1.85,5-3.69,0-3.17-2.63-4.22-5.79-4.22h0ZM8.64,7.1c.36,0,.66.3.66.66s-.29.66-.66.66-.66-.3-.66-.66.29-.66.66-.66ZM10.74,7.1c.36,0,.66.3.66.66s-.29.66-.66.66-.66-.3-.66-.66.29-.66.66-.66ZM12.85,8.15c.36,0,.66.3.66.66s-.29.66-.66.66-.66-.3-.66-.66c0-.36.29-.66.66-.66ZM6.8,8.68c.36,0,.66.3.66.66s-.29.66-.66.66-.66-.3-.66-.66.29-.66.66-.66ZM10.08,11.32c.44,0,.79.35.79.79s-.35.79-.79.79-.79-.35-.79-.79.35-.79.79-.79h0Z"/>
  </g>
  <g id="Outline">
    <path class="cls-1" d="M10,2c4.41,0,8,3.59,8,8s-3.59,8-8,8S2,14.41,2,10,5.59,2,10,2M10,0C4.48,0,0,4.48,0,10s4.48,10,10,10,10-4.48,10-10S15.52,0,10,0h0Z"/>
  </g>
</svg>