<?xml version="1.0" encoding="UTF-8"?>
<svg id="Layer_1" xmlns="http://www.w3.org/2000/svg" version="1.1" viewBox="0 0 408.8 91.6">
  <!-- Generator: Adobe Illustrator 29.2.1, SVG Export Plug-In . SVG Version: 2.1.0 Build 116)  -->
  <defs>
    <style>
      .st0 {
        fill: #00ff82;
      }

      .st1 {
        fill: violet;
      }
    </style>
  </defs>
  <g>
    <path class="st1" d="M405.2,31c-1.7-2.9-3.1-5.2-6-7-2.9-1.7-5.6-3.1-9.1-3.1s-6.5.9-9.5,2.6c-2.9,1.7-6.5,3.1-8.2,6.1-1.7,2.9-.2,6.8-.2,10.2s.6,6.1,2.4,9c1.7,2.9,3.2,5.7,6.1,7.4s6,2.4,9.5,2.4v-1.2c3.5,0,6-.4,8.9-2.1,2.9-1.7,6.1-2.8,7.8-5.7s2-6.3,2-9.7-1.9-5.8-3.6-8.7h0ZM400,45.5c-.9,1.6-3,2.5-4.6,3.4-1.6.9-3.4,1.6-5.3,1.6v1.2c-1.9,0-4.2-1-5.8-1.9-1.6-.9-2-3.4-2.9-5s-2-3.2-2-5-.6-4.4.4-6c.9-1.6,3.1-2.8,4.7-3.7,1.6-.9,3.8-.8,5.7-.8s3.7.5,5.3,1.4c1.6.9,1.6,3.1,2.5,4.6s3.7,2.6,3.7,4.5-.7,4.2-1.6,5.8h0Z"/>
    <path class="st1" d="M338.5,23.1c.5.5.9.9,1.2,1.5.8,1.4.5,2,1.2,3.4.3.5.6,1,1.2,1.5,2.5,2.5,2.3,2.7,4.9,5.1,2.5,2.5,3.1,1.9,5.6,4.3,2.5,2.5,3,7.4,6.2,5.9,3.3-1.6-.7-5.1-.7-8.8s0-3.7,0-7.4-2-4.1.8-6.6c3-2.7,4-3.1,7-.4,2.7,2.5,0,3.3,0,7s0,3.7,0,7.4.2,3.7.2,7.4-.9,3.7-.9,7.4,2.2,3.7.1,6.8c-1.4,2.1-2.5,3-4.7,1.9-3.2-1.6-1.8-3.9-4.4-6.5-2.6-2.5-2.6-2.5-5.2-5.1-2.6-2.5-2.1-3-4.7-5.6-2.6-2.5-2.8-7.1-6.3-6-3.2,1.1.2,4.9.2,8.3s.6,3.4.6,6.8,1.5,3.7-1.1,5.9c-3.1,2.6-3.3,2.6-6.2-.2-2.8-2.8-2.5-3.3-1.9-6.9.6-3.9,1.5-3.8,1.5-7.7s-2.2-3.9-2.2-7.9.9-3.7,1.3-5.5c.2-.7.2-1.3.2-2.4.2-3.5-.5-4.2.2-5,.8-1,2.9-1,4.1-.3.6.3,1,.8,1.7,1.5h0Z"/>
    <path class="st1" d="M325.9,40.3c0-.5,0-.9,0-1.4s0-.7-.1-1.1c-.2-2.5-1.2-2.9-1.2-6.1s2.9-3.7.9-6.7c-1.4-2-2.7-2.4-4.1-.4-1.5,2.1-.8,3-.3,4.7-.7-1-1.5-1.8-2.7-2.5-2.3-1.3-4.3-2.6-7-2.6s-5.1.7-7.4,2-5.4,2.2-6.7,4.5c-1.3,2.3.3,5.4.3,8.1s.5,4.6,1.8,6.9c1.3,2.3,2.3,4.5,4.5,5.8,2.3,1.3,4.7,1.8,7.4,1.8v-1.2c2.7,0,4.5-.2,6.8-1.5,1.1-.7,2.4-1.1,3.5-1.7-.3,1-.4,1.7.8,3.5,1.4,2,1.3,2.2,2.6.2,2-3,1.3-2.9,1.3-6.5s-.5-3.5-.6-5.8h0ZM318.5,43c-.6,1.1-2.4,1.6-3.5,2.2s-2.4,1.1-3.7,1.1v1.2c-1.3,0-3.1-.8-4.2-1.4-1.1-.6-1.1-2.7-1.7-3.8s-1.6-2.2-1.6-3.5-.7-3.3,0-4.4c.6-1.1,2.5-1.9,3.5-2.6,1.1-.6,2.7-.4,4-.4s2.6.3,3.7.9.7,2.4,1.3,3.5c.6,1.1,3.3,1.6,3.3,2.9s-.5,3-1.1,4.2h0Z"/>
    <path class="st1" d="M310,60.2c-2,0-2.5-.8-4.3-1.2-1.8-.5-3.8-.6-5.5-1.5-1.6-.9-4-1.2-5.3-2.5s-2-3.4-3-5c-1-1.7-1.1-3.8-1.5-5.6-.5-1.8-.7-3.7-.7-5.7s1.8-3.5,2.2-5.3c.5-1.8-1.1-4.5-.2-6.1.9-1.6,2.3-3.3,3.5-4.5,1.3-1.3,3.4-1.8,5-2.7,1.6-1,3.4-1.9,5.2-2.3,1.8-.5,3.4-.5,5.4-.5,1-4.6,1.2-4.7-.2-9.3-2.8,0-4.8,1.2-7.3,1.9-2.7.7-5.5.6-7.9,2-2.4,1.4-4.4,3-6.3,4.8-1.9,1.9-2.1,4.7-3.5,7.1-1.4,2.4-3.2,4.2-3.9,6.9-.7,2.6-.2,5.1-.2,8s0,5.3.6,7.8c.7,2.7-.3,6,1.1,8.4,1.4,2.3,4.5,3.3,6.4,5.1,1.9,1.8,3.9,3.2,6.2,4.5,2.4,1.4,4.4,3.3,7.1,3.9,2.6.7,5.3,2.6,8.1,2.6l-1.5-1.6c0-4.8,1.3-4.6.4-9.2h0Z"/>
    <path class="st1" d="M274.1,21.5c-3.3-2.8-5.1-2.8-8.4,0-2.8,2.4-1.5,3.5-1.5,7.3s2.5,3.7,2.5,7.4,0,3.7,0,7.4-1.6,3.6-2.9,4.9-3,2.2-4.9,2.2-3.7-.7-5-2-2.3-3.1-2.3-5.1c0-3.7-.5-3.7-.5-7.4s1.1-3.7,1.1-7.4,2.8-5,0-7.4c-3.3-2.8-4.4-1.6-7.6,1.2-2.8,2.4-.4,2.5-.4,6.2s.8,3.7.8,7.4-.3,3.7-.3,7.4-1.3,6,0,8.3c1.4,2.3,4.6,2.9,7,4.3,2.4,1.4,4.5,1.8,7.3,1.8v-.5c2.8,0,4.8-.2,7.2-1.6,2.4-1.4,5.1-2,6.5-4.3,1.4-2.3,1.5-5.1,1.5-7.9s-1.3-3.7-1.3-7.4.7-3.7.7-7.4,3.6-4.9.8-7.3h0Z"/>
    <path class="st1" d="M244.6,16.1c2.6-3.5,3.1-3.7.6-7.2-1.9-2.6-2.5-.4-5.7-.4h-.3c-.1-.4-.4-.8-.9-1.2-2.9-2.4-4.9-1.3-7.5.9-1.2-.5-1.9-1.2-4.1-1.2-3.2,0-3.1.8-5.9,2.4-3.6,1.9-1.9,3.3.7,6.7,1.9,2.6,2-.3,5.2-.3s2.4.4,3.1.7c-.1,2.8-.9,3.1-.9,6.4s.2,3.6.2,7.3,0,3.6,0,7.3.2,3.6.2,7.3,1.1,3.8.5,7.4c-.5,3.3-2.8,3.6,0,5.9,3.3,2.8,3.6,3,6.9.2,2.8-2.3,1.1-2.7,1.1-6.3s-.6-3.6-.6-7.3-1.3-3.6-1.3-7.3.7-3.6.7-7.3.7-3.6.7-7.3,0-3.6,0-6c.6,0,1.3-.1,2.3-.1,3.2,0,3.2,1.9,5.1-.6h0Z"/>
    <path class="st1" d="M220.2,23.8c-1.2-2-4.5-2.3-6.1-3.9s-3.1-2.8-5.1-4c-2-1.2-3.7-2.9-6-3.4-2.2-.6-4.5-.7-6.9-.7s-4.7.3-6.9.9c-2.3.6-4.2,1.6-6.3,2.8-2,1.2-3.3,2.8-4.9,4.4-1.6,1.6-3.8,2.6-4.9,4.6-1.2,2-2,4.2-2.6,6.5-.6,2.2.7,4.5.7,6.9s-.7,4.6-.2,6.8c.6,2.3,2.1,3.9,3.3,5.9,1.2,2,2.1,3.7,3.7,5.3,1.6,1.6,2.1,4.7,4.1,5.8,2.1,1.2,5,.3,7.3.9,2.2.6,4.3.6,6.8.6v-.5c2.4,0,4.4,0,6.6-.5,2.3-.6,4.9,0,6.9-1.2,2-1.2,3.4-3,5-4.6s1.8-4,3-6c1.2-2,2.6-3.6,3.2-5.9.6-2.2,1.5-4.3,1.5-6.7s-.3-4.7-.9-6.9c-.6-2.3,0-5.1-1.3-7.2h0ZM211.3,46.8c-1.5,2.5-4.3,4.1-6.8,5.5-2.5,1.4-5.4,2.3-8.5,2.3v1.2c-3.1,0-6.5-1.2-9.1-2.7-2.5-1.4-3.6-4.6-5.1-7.2s-2.7-5.2-2.7-8.2-.4-6.6,1.1-9.2,4.4-4.5,6.9-5.9c2.5-1.4,5.8-1.6,8.9-1.6s6,.7,8.5,2.1,3.2,4.3,4.7,6.8c1.5,2.5,4.5,4.6,4.5,7.7s-.9,6.4-2.4,8.9h0Z"/>
    <path class="st1" d="M164.5,21.7c-3-2.7-4-2.4-7.1.4-2.7,2.5-.8,2.9-.8,6.6s0,3.7,0,7.4,4,7.2.7,8.8c-3.2,1.5-3.6-3.4-6.2-5.9-2.6-2.5-3.1-1.9-5.6-4.3-2.6-2.5-2.3-2.7-4.9-5.1-2.6-2.5-2-3.3-3.6-6.5-2.5-5-7.1-2-6,3.8.7,3.9-1.6,3.9-1.6,7.9s2.2,3.9,2.2,7.9-.9,3.8-1.5,7.7c-.5,3.6-.9,4.1,1.9,6.9,2.9,2.8,3.1,2.8,6.2.2,2.6-2.2,1.1-2.5,1.1-5.9s-.6-3.4-.6-6.8-3.4-7.2-.2-8.3c3.4-1.1,3.7,3.4,6.3,6,2.6,2.5,2.1,3,4.7,5.6s2.6,2.5,5.2,5.1,1.2,4.8,4.4,6.5c2.2,1.1,3.3.2,4.7-1.9,2.1-3-.1-3.1-.1-6.8s.9-3.7.9-7.4-.2-3.7-.2-7.4,0-3.7,0-7.4,2.7-4.5,0-7h0Z"/>
    <path class="st1" d="M124.6,14.8c-3.4-2.7-5-2.7-8.4,0-2.7,2.2-1.5,3.3-1.5,6.7s2.5,3.5,2.5,6.9,0,3.5,0,6.9-.4,3.5-.9,6.9c-.5,3.1-1.9,3.5.8,5.7,3.4,2.7,3.5,3,6.9.3,2.7-2.2,1.1-2.5,1.1-6s-.6-3.5-.6-6.9-1.3-3.5-1.3-6.9.7-3.5.7-6.9,3.5-4.6.8-6.8h0Z"/>
    <path class="st1" d="M120.5.3c-1.5,0-2.2-.4-3.3.7-1.1,1.1-2.1,1.7-2.1,3.2s.5,2.8,1.6,3.8c1.1,1.1,2.2,3.1,3.8,3.1v-2.9c1.5,0,2,.1,3-.9,1.1-1.1,2.8-1.6,2.8-3.2s-1.1-2.5-2.2-3.6c-1.1-1.1-2.2-.3-3.6-.3h0Z"/>
    <path class="st1" d="M117.4,55.8c-3.9-3.3-5.5,2.4-9.8-.5-2.9-2,.3-4.2.3-7.8s0-3.5,0-7,1.6-3.5,1.6-7-2.5-3.5-2.5-7,0-3.5,0-7,3.7-4.7,1-6.9c-3.3-2.7-5-2.6-8.3.1-2.8,2.3.1,3.4.1,7s.2,3.6.2,7.3.5,3.6.5,7.3-1.1,3.6-1.1,7.3,0,3.6,0,7.3,2,3.8,1.6,7.4c-.4,3.3-2.8,3.3-.4,6.1,2.1,2.4,2-.2,5.1-.2s3.2,1.5,6.3,1.5,4.2,2,6.1-.5c2.6-3.5,2.5-4.5-.8-7.3Z"/>
    <path class="st1" d="M92.7,20.7c-3.5-2.6-4.4.4-8.4,2.1-4,1.8-3.7,7.3-7.8,5.9-3-1,1.7-4.3-.4-6.7-1.9-2.1-3.1-2.9-4.9-.6-2.3,2.9.2,3.6.2,7.3s0,3.7,0,7.4.2,3.7.2,7.4,1.1,3.9.5,7.6c-.6,3.3-2.9,3.7,0,6,3.4,2.8,3.7,3.1,7.2.3,2.9-2.4,1.1-2.8,1.1-6.5s-.6-3.7-.6-7.5-3-5.1-1.1-8.3c1.8-3,4.2-1.5,7.3-2.9s5,.9,6.6-2.2c2.2-4.2,3.8-6.4,0-9.1h0Z"/>
    <path class="st1" d="M62.9,32.1c-1.6-3.3-2.6-6.4-5.6-8.3-3-1.9-6.3-3.6-10.1-3.6s-6.1,2.4-9,4.1c-2.9,1.7-5,3.5-6.7,6.4-1.7,2.9-4.6,5.6-4.6,9.1s1.5,7,3.2,9.9,4,5.9,7,7.6,6.7,3.1,10.2,3.1v-3.1c2.1,0,3.7,0,5.5-.5,1.9-.6,4.2,0,5.9-1.3,1.7-1.2,2.6-3,3.8-4.6,1.1-1.6,1.9-1.6,2.6-3.6-4.8-1-4.5-1.3-9.3-.7-.9,1.4-2.1,1.9-3.5,2.7-1.5.8-3.2,1.3-4.9,1.3s-3-1.9-4.6-2.8c-1.6-1-4.6-.5-5.5-2.1-.5-.9-1-2.1-1.2-3.3.9-.6,2-1.2,3.3-1.2,3.4,0,3.4-.2,6.7-.2s3.4,1,6.7,1,3.4,1.6,6.7,1.6,3.3-1.3,6.6-2.2c.2-1.9,1.2-3.2.9-4.9-.3-1.8-3.1-2.7-3.9-4.3h0ZM46.3,37.3c-3.5,0-3.5.8-6.9.8s-2.3-.5-3-.9c.5-1,1.1-1.9,1.6-2.8,1-1.6,2.2-3.1,3.8-4,1.6-1,3.6-1.5,5.5-1.5s3.8.3,5.3,1.1,3.4,1.9,4.3,3.4c.5.8.7,1.9.7,3.1-1.3.5-2.2,1.8-4.5,1.8-3.5,0-3.5-1-6.9-1Z"/>
    <path class="st1" d="M9.8,65.2c0,0,.1,0,.2,0,.1,0,.2-.2.3-.3,1.1-1.4,3.1-.5,4.5-.4,1.3,0,2.7,0,3.8-.6,2.1-1.2,3.4-3.3,4.6-5.5,1.2-2.2.6-4.4.6-7s.2-4.2-.9-6.2-2.1-4-4.2-5.3c2-1.2,3.6-3,4.7-5,1.1-2,3.3-4.1,3.3-6.5s-3-4.4-4.2-6.5c-1.2-2.1-2.5-3.4-4.6-4.7-2.1-1.2-3.9-2.6-6.5-2.6s-.4,0-.6,0c-.1-.4-.4-.8-.9-1.1-3.3-2.8-5.5-.9-8.8,1.9-2.8,2.3.3,2.8.3,6.4s-.9,3.6-.9,7.3.2,3.6.2,7.3,0,3.6,0,7.3.2,3.6.2,7.3,1.1,3.8.5,7.4c-.4,2.2-1.5,3-1.4,4.1,0,.6.5,1,1.3,1.9.9.9,2,2.1,3.6,2.2.8,0,1.4-.1,1.9-.3.9-.3,1.7-.7,2.6-.8,0,0,.1,0,.2,0h0ZM16.5,53.9c-.6,1-2.4.7-3.4,1.3-1,.6-1.6,3.2-2.8,3.2s-.7-.3-1-.7c0-3.3-.6-3.5-.6-7s-1-3.6-1.2-6.3c.7-.2,2-1.4,2.8-1.4s2.7.2,3.7.8c1,.5,1.3,2.2,1.9,3.2.6,1-.7,2.1-.7,3.3s1.9,2.6,1.3,3.6h0ZM17.3,33.3c-.6,1-2.4,1.6-3.4,2.2-.8.5-1.6,1.1-2.5,1.3-.4.1-.9.2-1.3.2-.4,0-.8-.3-1.1,0,0,0-.1.2-.2.2s-.2,0-.3,0c0,0,0-.1-.1-.2-.4-.9-.5-2-.4-3,.2-1.7,1-3.4,1-5.2,0-3.1,0-3.6,0-5.9.3-.2.8-.8,1.5-.8,1.1,0,2.7-.1,3.7.5,1,.5,1.2,2.3,1.8,3.3.6,1,.9,2,.9,3.2s1.1,3.1.5,4.1h0Z"/>
  </g>
  <g>
    <path class="st0" d="M153.7,54.7l-4.5,25h-3.9l5.4-30.8h4.6l11.3,24.5,11.2-24.5h4.6l5.4,30.8h-3.9l-4.4-25-12.8,26.9h-.1l-12.8-26.9Z"/>
    <path class="st0" d="M200.5,78c-2.4-1.4-4.4-3.3-5.8-5.8s-2.1-5.1-2.1-8,.7-5.5,2.1-8,3.4-4.3,5.8-5.8,5.1-2.1,8-2.1,5.5.7,7.9,2.1c2.4,1.4,4.3,3.3,5.8,5.8,1.4,2.4,2.1,5.1,2.1,7.9s-.7,5.5-2.1,8-3.3,4.4-5.8,5.8-5.1,2.1-7.9,2.1-5.5-.7-8-2.1ZM214.5,74.7c1.8-1.1,3.3-2.6,4.4-4.4s1.6-3.9,1.6-6-.5-4.2-1.6-6-2.5-3.3-4.4-4.4c-1.8-1.1-3.8-1.6-6-1.6s-4.2.5-6,1.6c-1.9,1.1-3.3,2.5-4.4,4.4s-1.6,3.8-1.6,6,.5,4.2,1.6,6.1,2.5,3.3,4.4,4.4c1.8,1.1,3.9,1.6,6.1,1.6s4.2-.5,6-1.6h0ZM221.2,48.9h3.1v30.8h-3.1v-30.8Z"/>
    <path class="st0" d="M241.9,78c-2.4-1.4-4.4-3.3-5.8-5.8s-2.1-5.1-2.1-8,.7-5.5,2.1-8,3.4-4.3,5.8-5.8c2.4-1.4,5.1-2.1,8-2.1s5.5.7,8,2.1c2.4,1.4,4.3,3.3,5.8,5.8,1.4,2.4,2.1,5.1,2.1,7.9s-.7,5.5-2.1,8-3.3,4.4-5.8,5.8c-2.4,1.4-5.1,2.1-7.9,2.1s-5.5-.7-8-2.1h0ZM233.9,48.9h3.1v9.2l.7,1.9v31.7h-3.8v-42.8ZM255.9,74.7c1.8-1.1,3.3-2.6,4.4-4.4,1.1-1.9,1.6-3.9,1.6-6s-.5-4.2-1.6-6-2.5-3.3-4.4-4.4-3.8-1.6-6-1.6-4.2.5-6,1.6-3.3,2.5-4.4,4.4-1.6,3.8-1.6,6,.5,4.2,1.6,6.1,2.5,3.3,4.4,4.4c1.8,1.1,3.9,1.6,6.1,1.6s4.2-.5,6-1.6h0Z"/>
  </g>
  <path class="st0" d="M202.6,36c.2-1,1.1-1.3,1.9-.6s1.1,2,.9,3.1-.2.7-.2,1.1c-.1,1,0,1.9-.7,2.8s-.4.3-.6.5c-.3.3-.5.7-.5,1.1,0,0,.4.4.4.5.7.6,1.4,1.2,2.1,1.9s.5.6.8.8c.1.1-.5.4-.6.4s-.4,0-.4,0,0,.1-.1.2c-.5.4-1.4-.2-1.9-.3s-.8,0-1.1-.2-.6-.4-.6-.4c-.3.4-.4,1-.8,1.4s-.5.2-.6.4-.1.3-.2.4c0,.4-.2.9.3,1.1s.9,0,1.4,0,1,.4,1.1.9,0,.4,0,.3c0-.1-.3-.6-.4-.6-.2.2-.3.5-.5.6-.4.2-.4-.1-.6-.2s-.4,0-.5,0-.1.4-.2.5c0,0,0,0,0,0-.1-.3,0-.4-.3-.5s-.4,0-.6,0-.3,0-.5,0-.4.2-.6.2-.3,0-.4,0c0,0,0,.3-.1.3-.1,0,0-.3-.1-.3,0,0-.4,0-.4-.4s.2-.4.4-.5.2-.2.4-.3c.3-.2.6-.2.8-.5.5-.5.2-.8.1-1.4s0-.7.1-1.1c-.4,0-.9.1-1.3,0s-.5-.4-.8-.5-.6-.1-.8-.2-.6-.2-.9-.3c0,0,0,.3,0,.4,0,.4,0,.8,0,1.3s-.1,1.1-.2,1.7c0,0,.3.1.4.2.1,0,.4.4.5.4.1,0,.4,0,.6,0,.5,0,.3.4.2.7s0,.2,0,.4-.2.5-.3.4c0-.2,0-.5,0-.6s-.1,0-.2,0c-.5.4-.6,0-1.1-.1s-.6,0-.8.2,0,.4-.2.6,0,.1,0,0,0-.5,0-.6c-.2,0-.3,0-.5.1s-.5,0-.8,0-.3,0-.4,0c-.2,0-.3-.3-.3-.4-.2-.1-.5.5-.6.5-.2-.5.4-1,.8-1.1.8-.3,1.3.1,1.9-.8s.2-.4.2-.6c0-.3-.2-.2-.4-.3s-.4-.8-.5-1c-.3-.8-.5-1.7-.7-2.6,0,0,0,0-.2,0s-.2,0-.2,0,0,.2-.1.2c-.5.8-.8-.3-1-.7s-.3-.4-.3-.6c-.2-.5-.5-1.4-.6-2s0-1.1,0-1.7c0-1,0-1.6.1-2.6s.4-1.4,1-2.2.8-.9,1.7-.7.5.2.6.1.2-.3.2-.3c.5-.7,1.4-1.2,2-1.7s1.2-1,.6-1.6-.8-.4-1.1-.4c-.6-.1-1.1.2-1.6.2-2.5.2-4.5-.8-7.1.2s-2.4,1.2-2.7,2.3c0,0,0,0,0,0-.2-.3-.3-.8-.2-1.2,0-1.9,2.5-3.9,4-4.7,2.3-1.2,5.1-1.4,7.6-1.3s.5,0,.7,0,.4-.2.5-.3c.5-.2,1.5,0,2.1.2,1.5.4,3,1.6,3.6,3.1s.7,2.4.6,3.1-.1.4-.2.6,0,.4,0,.5c0,.4-.3,1.2-.4,1.6s-.2.3-.2.6,0,.4.2.5ZM197.6,27.2c-.4,0-.3.7.2.7s.4-.8-.2-.7Z"/>
</svg>