<?xml version="1.0" encoding="UTF-8"?>
<svg id="Layer_1" data-name="Layer 1" xmlns="http://www.w3.org/2000/svg" viewBox="0 0 408.84 91.64">
  <defs>
    <style>
      .cls-1 {
        fill: #00ff82;
        font-family: Lineal-Light, Lineal;
        font-size: 60px;
        font-variation-settings: 'wght' 300;
        font-weight: 300;
      }

      .cls-2 {
        fill: #9b00ff;
      }

      .cls-3 {
        letter-spacing: -.02em;
      }
    </style>
  </defs>
  <g>
    <path class="cls-2" d="M124.59,14.84c-3.37-2.7-5.04-2.67-8.41.03-2.7,2.16-1.49,3.3-1.49,6.75s2.49,3.45,2.49,6.91-.06,3.46-.06,6.91-.36,3.53-.93,6.94c-.51,3.09-1.87,3.53.83,5.69,3.37,2.7,3.54,2.95,6.91.26,2.7-2.16,1.09-2.5,1.09-5.96s-.63-3.45-.63-6.91-1.28-3.46-1.28-6.91.7-3.46.7-6.92,3.47-4.63.77-6.79Z"/>
    <path class="cls-2" d="M120.52.3c-1.54,0-2.23-.42-3.31.66-1.08,1.08-2.07,1.72-2.07,3.16,0,1.58.52,2.77,1.6,3.85,1.08,1.08,2.25,3.13,3.78,3.13v-2.91c1.54,0,1.96.15,3.02-.93,1.06-1.08,2.79-1.56,2.79-3.15,0-1.44-1.08-2.49-2.16-3.57-1.08-1.08-2.15-.26-3.64-.26Z"/>
    <path class="cls-2" d="M9.76,65.15c.06-.02.13-.04.18-.07.13-.08.21-.21.3-.33,1.07-1.4,3.09-.54,4.52-.43,1.31.1,2.67.08,3.84-.6,2.11-1.22,3.37-3.35,4.62-5.51,1.25-2.16.56-4.39.56-6.98,0-2.4.24-4.16-.91-6.15-1.15-1.99-2.15-4.05-4.16-5.3,2.02-1.25,3.59-2.97,4.74-4.96,1.15-1.99,3.27-4.09,3.27-6.49,0-2.59-2.96-4.37-4.21-6.48-1.25-2.11-2.49-3.43-4.6-4.66-2.11-1.22-3.93-2.62-6.52-2.62-.21,0-.4-.03-.58-.07-.15-.38-.41-.75-.85-1.12-3.31-2.78-5.49-.87-8.79,1.91-2.78,2.33.34,2.77.34,6.4s-.92,3.63-.92,7.26.17,3.63.17,7.26.02,3.63.02,7.26.22,3.63.22,7.26,1.08,3.85.5,7.44c-.35,2.17-1.49,3.04-1.4,4.06.05.58.52,1,1.34,1.86.87.9,2.02,2.1,3.65,2.21.75.05,1.39-.14,1.95-.31.86-.26,1.67-.66,2.56-.81.06-.01.12-.02.18-.03ZM16.49,53.91c-.58.98-2.38.71-3.36,1.31-.98.6-1.61,3.21-2.76,3.21-.4,0-.71-.32-.97-.68-.03-3.35-.62-3.46-.62-6.99,0-3.27-1.03-3.6-1.24-6.29.71-.15,1.99-1.41,2.83-1.41,1.15,0,2.72.22,3.7.78.98.55,1.28,2.2,1.86,3.18.58.98-.71,2.08-.71,3.28s1.86,2.63,1.28,3.61ZM17.28,33.31c-.58,1.03-2.43,1.57-3.41,2.17-.79.48-1.56,1.08-2.46,1.35-.41.12-.85.2-1.28.16-.4-.04-.79-.26-1.15.05-.08.07-.14.16-.23.23s-.21.1-.3.04c-.06-.04-.09-.11-.12-.18-.36-.94-.53-1.98-.4-2.98.24-1.73.95-3.43.95-5.19,0-3.12-.03-3.57-.03-5.93.32-.17.78-.8,1.5-.8,1.15,0,2.74-.1,3.72.45.98.55,1.2,2.27,1.78,3.26.58.98.89,2.05.89,3.25s1.1,3.08.52,4.11Z"/>
    <path class="cls-2" d="M92.68,20.71c-3.52-2.57-4.42.37-8.4,2.15-3.98,1.78-3.65,7.31-7.77,5.88-2.99-1.04,1.71-4.34-.42-6.69-1.94-2.13-3.09-2.9-4.86-.63-2.27,2.91.2,3.61.2,7.3s.02,3.69.02,7.39.22,3.69.22,7.38,1.1,3.92.5,7.56c-.55,3.34-2.91,3.67-.06,6.03,3.44,2.85,3.74,3.13,7.16.26,2.87-2.4,1.11-2.81,1.11-6.55s-.63-3.74-.63-7.49-3-5.11-1.05-8.31c1.83-3,4.16-1.45,7.35-2.92s4.98.88,6.59-2.24c2.15-4.16,3.81-6.36.03-9.12Z"/>
    <path class="cls-2" d="M62.94,32.11c-1.58-3.26-2.56-6.4-5.58-8.32-3.02-1.92-6.31-3.58-10.06-3.58-3.46,0-6.08,2.37-9.01,4.07-2.93,1.7-5,3.52-6.7,6.42-1.7,2.91-4.61,5.61-4.61,9.06s1.49,7,3.19,9.93c1.7,2.93,4.04,5.89,6.97,7.59,2.93,1.7,6.7,3.09,10.16,3.09v-3.08c2.08,0,3.68.09,5.54-.51,1.88-.61,4.22-.09,5.89-1.31,1.65-1.21,2.61-3.04,3.75-4.62,1.14-1.58,1.94-1.63,2.56-3.58-4.75-1.02-4.46-1.33-9.27-.67-.86,1.44-2.06,1.86-3.53,2.7-1.46.84-3.17,1.32-4.94,1.32-1.92,0-3-1.86-4.64-2.82-1.63-.96-4.59-.51-5.55-2.14-.55-.93-.97-2.1-1.23-3.29.93-.6,1.97-1.21,3.32-1.21,3.37,0,3.37-.18,6.73-.18s3.37,1,6.74,1,3.37,1.58,6.74,1.58,3.31-1.34,6.57-2.21c.19-1.87,1.15-3.17.86-4.91-.3-1.79-3.11-2.68-3.91-4.33ZM46.26,37.25c-3.45,0-3.45.78-6.9.78-1.47,0-2.33-.48-3.05-.87.49-.97,1.13-1.89,1.64-2.75.96-1.61,2.22-3.09,3.85-4.05,1.63-.96,3.57-1.51,5.49-1.51s3.77.27,5.31,1.11c1.54.84,3.41,1.92,4.34,3.41.53.85.65,1.94.67,3.06-1.26.48-2.19,1.82-4.46,1.82-3.45,0-3.45-1-6.89-1Z"/>
    <path class="cls-2" d="M117.42,55.84c-3.94-3.31-5.53,2.42-9.78-.48-2.9-1.98.33-4.23.33-7.75s-.04-3.52-.04-7.03,1.57-3.51,1.57-7.03-2.49-3.52-2.49-7.03.06-3.52.06-7.04,3.7-4.71.98-6.93c-3.35-2.73-5.04-2.65-8.35.13-2.78,2.33.13,3.39.13,7.02s.22,3.63.22,7.26.51,3.63.51,7.26-1.11,3.63-1.11,7.26.04,3.63.04,7.26,1.98,3.83,1.57,7.44c-.37,3.3-2.78,3.33-.39,6.08,2.07,2.38,1.99-.2,5.14-.2s3.16,1.55,6.31,1.55,4.21,2.04,6.07-.51c2.55-3.49,2.54-4.48-.77-7.26Z"/>
    <path class="cls-2" d="M338.54,23.06c.46.51.85.93,1.2,1.54.81,1.4.45,1.95,1.2,3.37.26.48.63.99,1.2,1.54,2.55,2.45,2.34,2.67,4.89,5.12,2.55,2.45,3.08,1.89,5.63,4.33,2.55,2.45,3,7.44,6.18,5.89,3.31-1.61-.7-5.1-.7-8.78s-.04-3.68-.04-7.37-1.97-4.11.76-6.58c3.02-2.73,4.04-3.11,7.05-.38,2.74,2.48.04,3.29.04,6.98s.02,3.69.02,7.39.17,3.69.17,7.38-.92,3.69-.92,7.39,2.21,3.7.13,6.75c-1.42,2.08-2.46,2.98-4.72,1.86-3.25-1.62-1.83-3.91-4.42-6.46-2.58-2.55-2.61-2.52-5.19-5.07-2.58-2.55-2.09-3.05-4.67-5.6-2.58-2.54-2.83-7.1-6.27-5.96-3.23,1.07.2,4.89.2,8.29s.63,3.4.63,6.79,1.48,3.67-1.12,5.86c-3.08,2.6-3.31,2.64-6.2-.18-2.82-2.75-2.45-3.29-1.92-6.88.57-3.89,1.51-3.81,1.51-7.74s-2.24-3.93-2.24-7.86c0-2.94.88-3.68,1.33-5.51.18-.73.2-1.28.25-2.36.17-3.53-.47-4.22.18-4.98.84-1,2.88-.97,4.11-.32.59.32,1.04.8,1.71,1.54Z"/>
    <path class="cls-2" d="M325.87,40.3c.01-.47.02-.94.02-1.42,0-.38-.04-.74-.11-1.08-.23-2.52-1.23-2.89-1.23-6.07,0-3.59,2.88-3.73.85-6.69-1.39-2.03-2.68-2.43-4.07-.4-1.47,2.14-.78,3.02-.29,4.69-.69-.96-1.49-1.8-2.67-2.5-2.26-1.33-4.29-2.57-6.98-2.57s-5.07.67-7.35,2c-2.28,1.33-5.36,2.25-6.68,4.51-1.33,2.26.32,5.42.32,8.11s.45,4.64,1.78,6.91c1.32,2.28,2.28,4.49,4.55,5.82,2.28,1.33,4.69,1.8,7.38,1.8v-1.23c2.69,0,4.54-.17,6.8-1.49,1.13-.66,2.36-1.14,3.48-1.73-.32.98-.42,1.68.79,3.45,1.39,2.03,1.26,2.22,2.65.18,2.03-2.96,1.33-2.9,1.33-6.49,0-3.06-.45-3.52-.59-5.8ZM318.54,43.04c-.64,1.12-2.36,1.59-3.46,2.23-1.1.64-2.38,1.14-3.68,1.14v1.23c-1.31,0-3.12-.81-4.22-1.44-1.1-.63-1.09-2.73-1.74-3.85-.65-1.12-1.56-2.17-1.56-3.47s-.73-3.31-.08-4.41c.65-1.1,2.45-1.92,3.55-2.56,1.1-.63,2.74-.36,4.05-.36s2.61.31,3.71.94c1.1.63.68,2.36,1.32,3.46.63,1.1,3.26,1.62,3.26,2.93s-.52,3.05-1.15,4.17Z"/>
    <path class="cls-2" d="M405.22,31.02c-1.7-2.9-3.09-5.25-6-6.95-2.9-1.7-5.64-3.14-9.1-3.14s-6.55.86-9.47,2.56c-2.93,1.7-6.52,3.14-8.23,6.05-1.7,2.91-.25,6.78-.25,10.23s.64,6.11,2.35,9.04c1.7,2.93,3.17,5.66,6.1,7.36,2.93,1.7,6.05,2.36,9.51,2.36v-1.23c3.46,0,6.02-.36,8.92-2.06,2.9-1.7,6.11-2.8,7.81-5.73,1.7-2.93,1.97-6.29,1.97-9.74s-1.91-5.84-3.62-8.74ZM400.01,45.52c-.94,1.61-3.04,2.47-4.63,3.4-1.58.94-3.38,1.6-5.26,1.6v1.23c-1.87,0-4.22-.96-5.83-1.9-1.61-.94-1.98-3.42-2.92-5.03-.94-1.61-1.99-3.18-1.99-5.05s-.59-4.4.35-5.98c.94-1.58,3.12-2.8,4.73-3.73,1.61-.94,3.79-.82,5.66-.82s3.7.46,5.29,1.4c1.58.94,1.57,3.06,2.5,4.65s3.71,2.62,3.71,4.49-.68,4.15-1.61,5.76Z"/>
    <path class="cls-2" d="M164.5,21.74c-3.01-2.74-4.04-2.35-7.05.38-2.73,2.47-.76,2.89-.76,6.58s.04,3.68.04,7.37,4.01,7.17.7,8.78c-3.18,1.54-3.63-3.44-6.18-5.89-2.55-2.45-3.08-1.89-5.63-4.33-2.55-2.45-2.34-2.67-4.89-5.12-2.55-2.45-2.04-3.29-3.61-6.46-2.47-4.99-7.11-2.04-6,3.76.74,3.86-1.58,3.93-1.58,7.86s2.24,3.93,2.24,7.86-.94,3.85-1.51,7.74c-.53,3.6-.89,4.14,1.92,6.88,2.89,2.82,3.12,2.77,6.2.18,2.6-2.19,1.11-2.46,1.11-5.86s-.63-3.4-.63-6.79-3.42-7.22-.2-8.29c3.44-1.14,3.69,3.42,6.27,5.96,2.58,2.55,2.09,3.05,4.67,5.6,2.58,2.55,2.61,2.52,5.19,5.07,2.58,2.55,1.17,4.84,4.42,6.46,2.25,1.13,3.3.22,4.72-1.86,2.08-3.05-.13-3.06-.13-6.75s.92-3.69.92-7.39-.17-3.69-.17-7.38-.02-3.69-.02-7.39,2.7-4.5-.04-6.98Z"/>
    <path class="cls-2" d="M220.16,23.78c-1.16-2.02-4.52-2.34-6.11-3.93s-3.13-2.84-5.14-4.01c-2.04-1.18-3.7-2.85-5.96-3.43-2.21-.57-4.48-.67-6.9-.67s-4.67.29-6.88.86c-2.28.58-4.25,1.62-6.3,2.8-2.01,1.16-3.34,2.81-4.93,4.39-1.59,1.59-3.77,2.6-4.93,4.61-1.18,2.04-2.04,4.22-2.62,6.5-.56,2.2.74,4.52.74,6.95s-.73,4.61-.17,6.81c.58,2.28,2.08,3.9,3.26,5.94,1.16,2.01,2.11,3.74,3.71,5.32,1.59,1.58,2.1,4.66,4.11,5.82,2.05,1.18,4.97.29,7.26.88,2.21.56,4.33.64,6.76.64v-.53c2.42,0,4.42.08,6.63-.48,2.26-.58,4.89,0,6.93-1.18,2.02-1.16,3.44-3.04,5.03-4.63,1.59-1.59,1.81-3.97,2.98-5.99,1.18-2.04,2.58-3.63,3.16-5.89.57-2.21,1.53-4.3,1.53-6.71s-.31-4.68-.88-6.88c-.58-2.26-.08-5.15-1.26-7.19ZM211.33,46.78c-1.47,2.52-4.3,4.09-6.79,5.53-2.5,1.44-5.38,2.35-8.49,2.35v1.23c-3.12,0-6.54-1.21-9.06-2.65-2.52-1.44-3.61-4.64-5.05-7.16-1.44-2.52-2.74-5.15-2.74-8.22s-.35-6.65,1.09-9.17c1.44-2.52,4.35-4.48,6.87-5.92,2.52-1.44,5.77-1.57,8.89-1.57s6.03.71,8.52,2.15c2.49,1.44,3.19,4.28,4.66,6.8,1.46,2.52,4.51,4.63,4.51,7.7s-.94,6.4-2.4,8.92Z"/>
    <path class="cls-2" d="M244.61,16.14c2.57-3.47,3.13-3.71.56-7.18-1.91-2.57-2.5-.35-5.7-.35-.12,0-.22,0-.33,0-.14-.41-.41-.81-.89-1.21-2.87-2.41-4.88-1.29-7.53.85-1.21-.46-1.92-1.18-4.08-1.18-3.21,0-3.06.81-5.87,2.36-3.55,1.95-1.87,3.26.7,6.73,1.91,2.57,1.96-.3,5.16-.3,1.56,0,2.36.37,3.14.74-.14,2.75-.9,3.06-.9,6.35,0,3.63.17,3.63.17,7.26s.02,3.63.02,7.26.22,3.63.22,7.26,1.08,3.85.5,7.44c-.53,3.28-2.83,3.57-.05,5.91,3.31,2.78,3.55,3.03,6.86.25,2.78-2.33,1.11-2.7,1.11-6.33s-.63-3.63-.63-7.26-1.28-3.63-1.28-7.26.7-3.63.7-7.26.71-3.63.71-7.26c0-3.17-.03-3.57-.03-6.04.58-.09,1.27-.15,2.28-.15,3.21,0,3.24,1.93,5.15-.64Z"/>
    <path class="cls-2" d="M274.13,21.46c-3.27-2.82-5.12-2.79-8.4.03-2.81,2.41-1.5,3.55-1.5,7.26s2.49,3.71,2.49,7.42-.06,3.71-.06,7.42c0,1.92-1.61,3.63-2.91,4.92s-3,2.16-4.92,2.16-3.69-.72-4.99-2.02c-1.3-1.3-2.26-3.14-2.26-5.06,0-3.71-.51-3.71-.51-7.41s1.11-3.71,1.11-7.42,2.77-5.01-.04-7.43c-3.28-2.81-4.35-1.62-7.62,1.2-2.82,2.43-.45,2.53-.45,6.25s.78,3.72.78,7.44-.3,3.72-.3,7.44c0,2.83-1.32,5.97.05,8.3,1.37,2.33,4.6,2.89,6.96,4.26,2.35,1.37,4.5,1.76,7.28,1.76v-.53c2.83,0,4.81-.19,7.16-1.56,2.35-1.37,5.11-2,6.48-4.32,1.37-2.33,1.47-5.07,1.47-7.91,0-3.72-1.28-3.72-1.28-7.44s.7-3.72.7-7.44,3.58-4.89.76-7.32Z"/>
    <path class="cls-2" d="M310.04,60.2c-1.96,0-2.55-.79-4.33-1.25-1.84-.47-3.81-.6-5.46-1.55-1.62-.94-4.04-1.19-5.32-2.47s-2.03-3.41-2.97-5.03c-.95-1.65-1.07-3.79-1.54-5.62-.45-1.78-.72-3.69-.72-5.65s1.75-3.49,2.21-5.27c.47-1.84-1.12-4.48-.17-6.13.94-1.62,2.27-3.26,3.55-4.55,1.28-1.28,3.42-1.76,5.04-2.7,1.65-.95,3.38-1.85,5.22-2.31,1.78-.45,3.4-.45,5.36-.45.96-4.65,1.16-4.72-.2-9.27-2.84,0-4.76,1.2-7.34,1.86-2.66.68-5.48.63-7.87,2.01-2.35,1.36-4.43,2.99-6.29,4.84-1.86,1.85-2.1,4.74-3.46,7.08-1.38,2.38-3.21,4.25-3.89,6.91-.66,2.57-.19,5.13-.19,7.97s0,5.28.65,7.85c.68,2.66-.27,6,1.12,8.37,1.36,2.34,4.52,3.29,6.38,5.14,1.85,1.85,3.87,3.16,6.22,4.51,2.39,1.38,4.41,3.27,7.07,3.95,2.58.66,5.29,2.57,8.13,2.57l-1.55-1.57c0-4.75,1.31-4.6.35-9.25Z"/>
  </g>
  <text class="cls-1" transform="translate(141.67 79.64)"><tspan class="cls-3" x="0" y="0">m</tspan><tspan x="48.3" y="0">ap</tspan></text>
</svg>