<?xml version="1.0" encoding="UTF-8"?>
<svg xmlns="http://www.w3.org/2000/svg" viewBox="0 0 20 20">
  <defs>
    <style>
      .cls-1 {
        fill: #9b00ff;
      }

      .cls-2 {
        fill: tomato;
      }
    </style>
  </defs>
  <g id="Coffee">
    <circle class="cls-2" cx="10" cy="10" r="10"/>
    <path class="cls-1" d="M5.89,13.76c0,.69.56,1.25,1.25,1.25h6.25c.69,0,1.25-.56,1.25-1.25H5.89ZM7.14,11.16v.5c0,.69.56,1.25,1.25,1.25h4.38c.69,0,1.25-.56,1.25-1.25v-5h-7.13c-1.25,0-2.25.88-2.25,2.25s1,2.25,2.25,2.25h.25ZM5.83,8.91c0-.62.44-1.12,1.06-1.12h.25v2.25h-.25c-.62,0-1.06-.44-1.06-1.13h0Z"/>
  </g>
  <g id="Outline">
    <path class="cls-1" d="M10,2c4.41,0,8,3.59,8,8s-3.59,8-8,8S2,14.41,2,10,5.59,2,10,2M10,0C4.48,0,0,4.48,0,10s4.48,10,10,10,10-4.48,10-10S15.52,0,10,0h0Z"/>
  </g>
</svg>