<?xml version="1.0" encoding="UTF-8"?>
<svg id="Layer_1" xmlns="http://www.w3.org/2000/svg" version="1.1" viewBox="0 0 20 20">
  <!-- Generator: Adobe Illustrator 29.2.1, SVG Export Plug-In . SVG Version: 2.1.0 Build 116)  -->
  <defs>
    <style>
      .st0 {
        fill: #9b00ff;
      }

      .st1 {
        fill: #dc143c;
      }
    </style>
  </defs>
  <g id="Coffee">
    <circle class="st1" cx="10" cy="10" r="10"/>
    <path class="st0" d="M5.9,13.8c0,.7.6,1.2,1.2,1.2h6.2c.7,0,1.2-.6,1.2-1.2H5.9ZM7.1,11.2v.5c0,.7.6,1.2,1.2,1.2h4.4c.7,0,1.2-.6,1.2-1.2v-5h-7.1c-1.2,0-2.2.9-2.2,2.2s1,2.2,2.2,2.2h.3,0ZM5.8,8.9c0-.6.4-1.1,1.1-1.1h.2v2.2h-.2c-.6,0-1.1-.4-1.1-1.1h0Z"/>
  </g>
  <g id="Outline">
    <path class="st0" d="M10,2c4.4,0,8,3.6,8,8s-3.6,8-8,8S2,14.4,2,10,5.6,2,10,2M10,0C4.5,0,0,4.5,0,10s4.5,10,10,10,10-4.5,10-10S15.5,0,10,0h0Z"/>
  </g>
</svg>