<?xml version="1.0" encoding="UTF-8"?>
<svg xmlns="http://www.w3.org/2000/svg" viewBox="0 0 20 20">
  <defs>
    <style>
      .cls-1 {
        fill: #9b00ff;
      }

      .cls-2 {
        fill: #7fffd4;
      }
    </style>
  </defs>
  <g id="Club">
    <circle class="cls-2" cx="10" cy="10" r="10"/>
    <path id="nightclub" class="cls-1" d="M14.02,5.19l-6.92,1.38v5.92c-.27-.05-.54-.05-.82.02-.8.21-1.39.96-1.23,1.56.16.6,1.04.95,1.84.74.8-.21,1.25-.92,1.25-1.56v-4.82l4.84-.95v3.89c-.27-.04-.54-.03-.82.04-.8.21-1.39.94-1.23,1.54.16.6,1.04.95,1.84.74.8-.21,1.25-.89,1.25-1.58v-6.92Z"/>
  </g>
  <g id="Outline">
    <path class="cls-1" d="M10,2c4.41,0,8,3.59,8,8s-3.59,8-8,8S2,14.41,2,10,5.59,2,10,2M10,0C4.48,0,0,4.48,0,10s4.48,10,10,10,10-4.48,10-10S15.52,0,10,0h0Z"/>
  </g>
</svg>