<?xml version="1.0" encoding="UTF-8"?>
<svg xmlns="http://www.w3.org/2000/svg" viewBox="0 0 20 20">
  <defs>
    <style>
      .cls-1 {
        fill: orange;
      }

      .cls-2 {
        fill: #9b00ff;
      }
    </style>
  </defs>
  <g id="Fastfood">
    <circle class="cls-1" cx="10" cy="10" r="10"/>
    <polygon class="cls-2" points="11.29 7.11 10.55 4.58 10.97 4.46 11.74 7.12 15.59 7.12 14.66 14.47 11.51 14.47 10.57 7.12 11.29 7.11"/>
    <path class="cls-2" d="M10.29,10.94s.11-1.07-1.52-1.07h-2.61c-1.64,0-1.52,1.07-1.52,1.07h5.64Z"/>
    <path class="cls-2" d="M4.64,13.4s-.12,1.07,1.52,1.07h2.6c1.63,0,1.52-1.07,1.52-1.07h-5.64Z"/>
    <path class="cls-2" d="M10.07,12.62c.27,0,.48-.22.48-.48s-.22-.48-.48-.48h-5.18c-.27,0-.48.22-.48.48s.22.48.48.48h5.18Z"/>
  </g>
  <g id="Outline">
    <path class="cls-2" d="M10,2c4.41,0,8,3.59,8,8s-3.59,8-8,8S2,14.41,2,10,5.59,2,10,2M10,0C4.48,0,0,4.48,0,10s4.48,10,10,10,10-4.48,10-10S15.52,0,10,0h0Z"/>
  </g>
</svg>