<svg xmlns="http://www.w3.org/2000/svg" version="1.1" xmlns:xlink="http://www.w3.org/1999/xlink" xmlns:svgjs="http://svgjs.dev/svgjs" width="2000" height="1999.27"><svg id="SvgjsSvg1130" data-name="Layer 1" xmlns="http://www.w3.org/2000/svg" viewBox="0 0 2000 1999.27">
  <defs>
    <style>
      .cls-1 {
        fill: #00ff82;
      }

      .cls-2 {
        fill: #9b00ff;
      }

      .cls-3 {
        fill: violet;
      }
    </style>
  </defs>
  <path class="cls-3" d="M1917.03,467.39c-44.56-78.42-173.61-90.84-234.68-152.56-61.07-61.72-120.22-110.25-197.43-155.67-78.36-45.81-142.12-110.64-228.92-133.15C1171.12,3.88,1083.93,0,990.97,0s-179.37,11.26-264.26,33.39c-87.57,22.52-163.24,62.89-241.98,108.7-77.2,45.03-128.29,109.08-189.36,170.42-61.07,61.72-144.81,100.93-189.36,178.96-45.32,79.19-78.36,163.82-100.63,252.33-21.51,85.4,28.42,175.47,28.42,269.8s-28.04,178.96-6.53,264.36c22.28,88.51,79.89,151.4,125.22,230.59,44.56,78.03,81.04,145.19,142.5,206.52,61.07,61.34,80.66,180.9,157.86,225.93,78.74,45.81,190.9,11.26,278.85,34.16,49.01,10.09,99.61,21.84,149.45,23.77,101.48,3.57,201.33-21.71,303.11-26.37,19.63-2.61,42.3-11.77,61.75-11.77,86.81-22.52,187.82,0,266.18-45.81,77.59-45.03,132.13-118.01,193.2-179.74,61.07-61.72,69.52-154.11,114.46-232.53,45.32-79.19,99.1-140.92,121.38-228.65,21.89-85.79,58.77-166.93,58.77-260.48s-11.91-181.68-33.8-267.08c-22.28-87.73-3.07-199.92-48.4-279.11h-.77ZM1577.88,1360.25c-56.46,97.83-165.16,158.77-260.8,214.67-96.02,55.9-206.64,91.23-326.1,91.23v47.75c-119.84,0-251.2-46.97-347.99-102.87-96.79-55.9-138.66-180.12-193.97-277.95-55.31-97.83-105.24-199.92-105.24-319.1s-13.44-258.15,41.87-355.98c55.31-97.83,167.08-173.91,263.88-229.81,96.79-55.9,221.62-60.95,341.46-60.95s231.61,27.56,327.25,83.46c95.64,55.9,122.53,166.15,178.99,263.98,56.08,97.83,173.23,179.74,173.23,298.91s-36.11,248.45-92.18,346.27l-.38.39Z"></path>
  <path class="cls-2" d="M1335.79,1633.13c124.62-63.95,244.94-105.51,321.66-226.82,76.73-121.31,141.96-245.47,147.34-386.3-4.08-31.43-8.26-62.89-15.24-93.8-13.56-62.44-40.57-119.14-71.33-176.69-36.86-68.18-76.36-137.15-124.72-196.96-14.5-17.88-29.92-34.96-46.24-51.21-26.83-26.71-57.86-49.6-82.55-78.42-21.95-25.63-27.49-54.48-44.25-82.19-9.51-15.73-25.75-26.13-42.24-34.26-111.24-54.85-222.12-99.41-348.01-104.22-140.84-5.38-253.24,57.92-378.18,123.14-125.29,65-206.95,144.3-283.68,265.62-76.73,121.31-213.78,225.15-218.72,365.28-4.59,140.36,89.63,270.83,154.85,395.77,64.87,124.72,154.4,223.68,276.07,300.63,121.67,76.95,250.04,87.25,389.82,91.97,140.13,4.94,241.27-46.78,365.55-110.95l-.13-.57Z"></path>
  <path class="cls-1" d="M1292.21,898.56c8.07-42.04,47.62-54.73,80.12-26.13,37.86,33.33,46.65,87.63,39.11,135.48-2.46,15.61-7.77,31.04-9.96,46.92-5.71,41.46-2.67,82.83-29.85,118.73-8.04,10.61-15.71,12.59-24.87,20.4-13.03,11.1-20.9,28.46-23.23,45.23.33,2.38,15.53,16.94,18.58,19.81,29.19,27.37,61.12,51.54,88.83,80.64,10.79,11.33,20.25,27.1,34.18,33.73,4.37,6.19-22.2,16.14-26.4,17.04-3.78.81-17.79,1.25-18.6,1.72-.45.26-3.82,6.45-6,8.5-19.54,18.34-61.68-7.06-83.1-13.31-14.32-4.18-33.29-4.15-46.1-9.62-4.99-2.13-25.13-18.4-26.97-18.27-11.93,18.81-17.21,44.32-35.49,58.48-7.51,5.81-20.65,8.68-25.27,16.52-2.15,3.65-5.4,14.49-6.55,18.99-4.29,16.87-6.54,37.16,12.19,45.84,19.31,8.94,40.48-2.34,62.14-.62,19.69,1.57,44.27,16.79,46.84,37.9.19,1.59.41,17.69-2.18,14.38,1.62-6.46-12.16-27.66-17.85-26.54-7.79,8.68-12.32,19.81-23.13,25.62-18.24,9.8-15.35-5.92-27.21-8.09-4.31-.79-19.24.08-22.76,2.22-2.87,1.75-5.04,17.61-6.57,21.88-2.49.37-1.87.09-2.58-1.47-5.17-11.29,2.88-17.69-13.02-22.96-11.11-3.69-16.45-.58-26.8-1.06-7.46-.35-13.96-3.21-22.02-2.36-7.91.83-17.06,6.66-24.64,7.85-5.94.93-12.16-.26-18.14.44-3.09.5-3.12,12.83-5.95,11.44-4.58-2.25-3.22-11.54-4.64-13.94-2.01-3.41-15.23-4.29-16.8-15.74-1.79-13.01,9.73-15.46,17.28-20.87,5.73-4.11,7.97-8.81,15.52-12.34,14.88-6.95,24.17-6.55,36.22-20.66,20.23-23.67,6.87-36.6,5.16-62.07-1.1-16.48,1.97-32.13,4.69-48.21-18.45.37-39.7,5.38-57.63.17-12.75-3.71-21.79-15.11-33.75-19.64-10.42-3.95-25.23-5.79-36.55-8.72-12.59-3.26-25.25-6.8-37.49-11.23-1.69.15-2.8,13.86-2.94,16.72-.97,19.02,1.45,36.17,2.37,54.62,1.28,25.72-5.92,48.86-6.79,74.12.62,1.84,12.17,4.73,15.54,6.52,5.1,2.7,18.07,15.49,19.94,16.04,5.3,1.55,18.24.47,25,1.7,21.64,3.93,11.7,17.54,8.37,30.99-1.25,5.05-1.07,10.41-2.78,15.79-.59,1.84-9.97,21.26-12.82,17.93,1.31-7.82,1.08-20.16-4.12-26.64-4.82-6-5.57.31-8.71,2.79-23.14,18.23-25.92-2.64-45.92-5.03-10.7-1.28-26.47.38-34.68,8.01-6.77,6.29-3.98,19.09-8.13,27.86-1.56,3.31-3.69,6.24-4.08.59-.24-3.55-.26-23.18-3.09-23.86-7.93-1.1-14.07,3.89-21.87,4.67-10.58,1.06-21.59-1.87-32.54-1.2-5.27.32-12.26,2.75-17.21,2.32-8.51-.75-13.31-10.78-13.53-18.5-8.44-4.6-23.24,20.81-24.93,20.84-10.31-23.25,15.86-41.67,35.16-48.39,35.41-12.33,57.77,4.66,82.45-33.62,3.79-5.88,9.72-18.39,9.58-25.33-.23-11.79-8.01-7.88-15.11-14-8.95-7.7-18.68-32.83-22.99-44.33-13.5-36.01-22.75-74.99-29.32-112.87-3.05-.16-4.12,3.28-6.89,4.12-2.59.79-6.87,0-8.02.7-.43.26-3.07,7.12-4.34,9-22.41,33.23-36.42-14.78-45.14-31.26-4.47-8.44-11.11-15.82-14.74-24.72-9.01-22.08-21.62-62.17-25.95-85.48-4.82-25.98-.69-48.98-1.65-74.96-1.55-41.73-1.92-69.29,4.91-111.06,6.93-42.36,18.42-61.97,42.14-95.99,20.19-28.95,36.55-40.76,73.6-30.84,5.83,1.56,21.32,9.42,25.97,6.28,1.72-1.16,6.89-10.78,9.43-13.85,23.2-28.06,60.3-50.89,88.2-74.31,17.49-14.68,53.12-45.08,27.92-68.48-8.31-7.72-36.38-15.27-48.19-17.97-24.6-5.62-46.55,7.22-70.18,8.77-109.62,7.18-194.92-34.9-306.2,7.2-45.9,17.37-101.39,50.41-116.96,99.53-2.72.58-1.86-.38-2.59-1.5-7.51-11.55-10.81-36.5-10.22-50.21,3.52-81.7,106.49-169.34,174.13-204.27,97.79-50.5,218.19-58.43,326.83-55.17,8.65.26,22.19,3.34,30.15,2.41,5.96-.7,15.84-9.25,23.14-11.68,21.94-7.31,66.55,2.22,89.57,8.02,66.28,16.7,130.83,69.5,154.83,134.2,10.99,29.63,29.94,104.62,27.82,134.65-.69,9.77-5.74,17.28-6.88,24.46-1.09,6.88.51,15.94-.02,23.19-1.13,15.4-13.15,51.37-18.56,67.34-3.84,11.35-8.86,12.43-8.17,26.63.42,8.52,1.32,18.24,10.42,21.48ZM1078.33,520.43c-15.36,3.16-13.96,30.86,6.58,28.67,20.21-2.16,16.8-33.48-6.58-28.67Z"></path>
</svg><style>@media (prefers-color-scheme: light) { :root { filter: none; } }
@media (prefers-color-scheme: dark) { :root { filter: none; } }
</style></svg>