<?xml version="1.0" encoding="UTF-8"?>
<svg xmlns="http://www.w3.org/2000/svg" viewBox="0 0 20 20">
  <defs>
    <style>
      .cls-1 {
        fill-rule: evenodd;
        stroke: #9b00ff;
        stroke-linecap: round;
        stroke-linejoin: round;
        stroke-width: .5px;
      }

      .cls-1, .cls-2 {
        fill: #9b00ff;
      }

      .cls-3 {
        fill: #bc8f8f;
      }
    </style>
  </defs>
  <g id="Other">
    <circle class="cls-3" cx="10" cy="10" r="10"/>
    <path class="cls-1" d="M12.69,12.07c-.12,1.1,0,1.65.32,2.7-.59.62-1.07,1.19-1.91,1.19l-.2-.6.94-.3c-.53-.62-1.27-1.3-1.17-1.75-1.46.14-1.6.95-2.13,2.19l-1.75-.58.27-.65.99.49c-.26-1.69.56-2.69,1.75-3.49-.48-.39-.55-.94-.55-1.52-1.47.38-2.38.51-3.24-.81l.29-.58c1.03,1.86,1.68.89,2.96.13-2.62-1.64-2.25-.98-2.96-2.75l.58-.29c.34,1.69,1.3,1.37,2.63,1.75l1.46-1.16c-.39-1.47-1.74-.11-1.75-1.46h.88c.93-1.06,1.95-.21,2.63-.29l-.29.58c.08.68,0,1.16-.29,1.75.72,1.08-.06,1.46-.22,2.66-.06.48.65,1.83.77,2.79h0Z"/>
  </g>
  <g id="Outline">
    <path class="cls-2" d="M10,2c4.41,0,8,3.59,8,8s-3.59,8-8,8S2,14.41,2,10,5.59,2,10,2M10,0C4.48,0,0,4.48,0,10s4.48,10,10,10,10-4.48,10-10S15.52,0,10,0h0Z"/>
  </g>
</svg>