<?xml version="1.0" encoding="UTF-8"?>
<svg xmlns="http://www.w3.org/2000/svg" viewBox="0 0 20 20">
  <defs>
    <style>
      .cls-1 {
        fill: #ff0;
      }

      .cls-2 {
        fill: #9b00ff;
      }
    </style>
  </defs>
  <g id="Pub">
    <circle class="cls-1" cx="10" cy="10" r="10"/>
    <path class="cls-2" d="M11.52,7.77c-.41.32-.86.5-1.35.46s-1-.18-1.36-.44c-.23.14-.45.18-.72.18-.41-.04-.72-.18-1-.36v.81s-.67.05-.67.05c-.59-.04-1.08.46-1.08,1.09v2.26c.02.63.52,1.13,1.15,1.12l.68.04v.54c0,.63.51,1.13,1.14,1.12l3.89-.02c.63,0,1.13-.5,1.08-1.09l-.08-5.84c-.27.18-.59.32-.95.32-.23-.13-.5-.22-.73-.27h0ZM6.16,11.64v-1.81c-.01-.27.21-.5.44-.45h.45s.11,2.71.11,2.71h-.54c-.23-.04-.41-.22-.45-.45h0ZM8.57,13.49c-.27,0-.45-.18-.41-.4l-.07-3.94c0-.27.18-.45.4-.41.27,0,.45.18.41.4l.02,3.89c0,.27-.18.45-.36.45h0ZM10.19,13.48c-.27,0-.45-.18-.41-.4l-.02-3.89c0-.27.18-.45.4-.41.27,0,.45.18.41.4l.02,3.89c.05.23-.13.41-.4.41h0ZM12.25,9.12l.07,3.94c0,.27-.18.45-.4.41-.27,0-.45-.18-.41-.4l-.02-3.89c0-.27.18-.45.4-.41.14-.05.36.18.36.36ZM12.23,5.14c-.18,0-.41.05-.5.14-.27-.63-.91-1.08-1.59-1.03-.72,0-1.31.41-1.58,1.05-.18-.09-.41-.13-.59-.13-.63,0-1.13.5-1.08,1.09,0,.63.5,1.13,1.14,1.12.27,0,.59-.14.77-.32.32.41.82.63,1.36.63.54,0,.99-.28,1.35-.64.23.22.5.31.77.31.63,0,1.13-.5,1.08-1.09,0-.63-.5-1.13-1.14-1.12h0Z"/>
  </g>
  <g id="Outline">
    <path class="cls-2" d="M10,2c4.41,0,8,3.59,8,8s-3.59,8-8,8S2,14.41,2,10,5.59,2,10,2M10,0C4.48,0,0,4.48,0,10s4.48,10,10,10,10-4.48,10-10S15.52,0,10,0h0Z"/>
  </g>
</svg>