<?xml version="1.0" encoding="UTF-8"?>
<svg xmlns="http://www.w3.org/2000/svg" viewBox="0 0 20 20">
  <defs>
    <style>
      .cls-1 {
        fill: #00bfff;
      }

      .cls-2 {
        fill: #9b00ff;
      }
    </style>
  </defs>
  <g id="Restaurant">
    <circle class="cls-1" cx="10" cy="10" r="10"/>
    <path class="cls-2" d="M12.82,9.33c.44,0,.87-.17,1.18-.49l1.6-1.6c.13-.13.14-.33.02-.47-.12-.14-.33-.15-.47-.02,0,0,0,0-.01.01l-1.43,1.43c-.1.1-.26.1-.36,0-.1-.1-.09-.27,0-.37l1.42-1.42c.13-.13.13-.34,0-.47,0,0,0,0-.01-.01-.06-.05-.14-.08-.22-.08-.09,0-.18.04-.25.1l-1.42,1.42c-.1.1-.26.1-.36,0-.1-.1-.09-.27,0-.37l1.42-1.42c.13-.13.13-.34,0-.47,0,0,0,0-.01-.01-.06-.05-.14-.08-.22-.08-.09,0-.18.04-.25.1l-1.6,1.6c-.31.31-.49.74-.49,1.18v.17c0,.09-.04.17-.1.24l-.74.74s-.09.03-.12,0h0s-3.61-3.61-3.61-3.61c-.13-.13-.34-.13-.47,0-.32.31-.48.75-.48,1.28,0,.86.45,1.85,1.18,2.59l1.78,1.78c.25.25.6.39.95.39.11,0,.23-.01.34-.04.03,0,.06-.01.08-.01.08,0,.16.03.23.09l.24.22c.06.06.1.15.1.23v.12c0,.26.1.51.29.7l1.88,1.91h0c.43.44,1.14.44,1.57,0,.43-.43.43-1.14,0-1.57l-2.81-2.81s-.03-.09,0-.12h0s.74-.74.74-.74c.06-.06.15-.1.24-.1h.17Z"/>
    <path class="cls-2" d="M9.76,12.13c-.53,0-1.05-.21-1.42-.59l-.29-.29c-.07-.06-.17-.06-.24,0l-1.77,1.76c-.32.32-.43.78-.27,1.24,0,.03.02.05.03.08.21.43.62.68,1.06.68.31,0,.61-.12.83-.34l2.36-2.37s.03-.05.03-.08h0c0-.06-.05-.1-.1-.09,0,0,0,0,0,0-.07,0-.14.01-.21.01Z"/>
  </g>
  <g id="Outline">
    <path class="cls-2" d="M10,2c4.41,0,8,3.59,8,8s-3.59,8-8,8S2,14.41,2,10,5.59,2,10,2M10,0C4.48,0,0,4.48,0,10s4.48,10,10,10,10-4.48,10-10S15.52,0,10,0h0Z"/>
  </g>
</svg>