<?xml version="1.0" encoding="UTF-8"?>
<svg xmlns="http://www.w3.org/2000/svg" viewBox="0 0 20 20">
  <defs>
    <style>
      .cls-1 {
        fill: #9acd32;
      }

      .cls-2 {
        stroke: #9b00ff;
        stroke-linejoin: round;
        stroke-width: .5px;
      }

      .cls-2, .cls-3 {
        fill: #9b00ff;
      }
    </style>
  </defs>
  <g id="Secondhand">
    <circle class="cls-1" cx="10" cy="10" r="10"/>
    <path class="cls-2" d="M15.68,12.56c-.07-.14-.18-.26-.32-.34l-4.94-3.1v-.44s0-.03.02-.04c.04,0,.1-.01.17-.02.14-.03.33-.08.51-.2.27-.18.5-.42.66-.7.16-.29.25-.62.25-.96,0-.55-.22-1.05-.58-1.41-.36-.36-.86-.58-1.41-.58-.41,0-.8.13-1.11.34-.32.21-.57.52-.72.87-.08.19,0,.42.2.5.19.08.42,0,.5-.2.09-.22.25-.41.44-.54.2-.13.43-.21.69-.21.34,0,.64.14.87.36.22.22.36.53.36.87,0,.22-.06.42-.15.59-.1.18-.24.33-.41.44-.07.04-.16.08-.24.09-.04,0-.07.01-.1.01-.01,0-.02,0-.02,0h-.05s-.05.02-.05.02c-.35.1-.58.42-.58.78v.45l-4.46,3.11h0c-.25.18-.4.47-.4.76,0,.09.01.19.04.28.12.39.48.65.89.65h9.14c.42,0,.78-.28.9-.67h0c.02-.09.04-.17.04-.26,0-.16-.04-.31-.11-.45ZM15.02,13.06h0c-.02.07-.09.12-.16.12H5.72c-.07,0-.14-.05-.16-.12,0-.02,0-.03,0-.05,0-.05.03-.11.07-.14h0l4.42-3.08,4.9,3.08s.05.04.06.06c.01.03.02.05.02.08,0,.02,0,.03,0,.05Z"/>
  </g>
  <g id="Outline">
    <path class="cls-3" d="M10,2c4.41,0,8,3.59,8,8s-3.59,8-8,8S2,14.41,2,10,5.59,2,10,2M10,0C4.48,0,0,4.48,0,10s4.48,10,10,10,10-4.48,10-10S15.52,0,10,0h0Z"/>
  </g>
</svg>